<?xml version="1.0" standalone="no"?>
<!DOCTYPE svg PUBLIC "-//W3C//DTD SVG 20010904//EN"
 "http://www.w3.org/TR/2001/REC-SVG-20010904/DTD/svg10.dtd">
<svg version="1.0" xmlns="http://www.w3.org/2000/svg"
 width="512.000000pt" height="512.000000pt" viewBox="0 0 512.000000 512.000000"
 preserveAspectRatio="xMidYMid meet">
<metadata>
Created by potrace 1.14, written by Peter Selinger 2001-2017
</metadata>
<g transform="translate(0.000000,512.000000) scale(0.100000,-0.100000)"
fill="#000000" stroke="none">
<path d="M2087 4604 c-1 -1 -36 -4 -77 -8 -143 -11 -271 -36 -345 -67 -16 -7
-33 -12 -37 -11 -5 1 -8 -3 -8 -9 0 -5 -4 -8 -9 -5 -5 3 -12 -1 -15 -10 -4 -9
-9 -14 -12 -11 -7 6 -124 -87 -137 -109 -4 -8 -15 -14 -23 -14 -8 0 -12 -4 -9
-10 3 -5 1 -10 -6 -10 -6 0 -22 -11 -34 -24 -13 -14 -26 -22 -29 -19 -3 4 -6
-1 -6 -10 0 -10 -4 -17 -8 -17 -11 0 -73 -55 -75 -67 -1 -4 -5 -7 -9 -6 -4 2
-10 -6 -13 -17 -4 -11 -10 -20 -13 -20 -4 0 -16 -16 -26 -35 -11 -19 -24 -35
-29 -35 -6 0 -8 -3 -4 -6 3 -4 1 -12 -6 -20 -30 -33 -37 -44 -37 -54 0 -6 -9
-20 -20 -32 -10 -12 -17 -25 -14 -30 3 -4 1 -8 -4 -8 -8 0 -72 -126 -79 -155
-10 -46 -64 -180 -75 -186 -7 -5 -10 -9 -5 -9 4 0 1 -13 -7 -29 -11 -20 -25
-31 -51 -35 -20 -4 -33 -11 -30 -17 4 -5 1 -9 -4 -9 -6 0 -29 -17 -51 -37 -22
-21 -57 -51 -77 -68 -20 -16 -57 -49 -81 -72 -25 -24 -49 -43 -55 -43 -6 0 -7
-3 -4 -6 7 -7 -42 -54 -56 -54 -5 0 -5 -4 -2 -10 3 -5 2 -10 -3 -10 -5 0 -17
-15 -27 -34 -11 -19 -23 -33 -27 -30 -4 3 -8 0 -8 -6 0 -9 -46 -73 -90 -127
-6 -7 -8 -13 -5 -13 3 0 -8 -19 -25 -42 -16 -22 -30 -49 -30 -60 0 -10 -4 -18
-8 -18 -17 0 -120 -248 -137 -330 -2 -8 -4 -15 -5 -15 -1 0 -3 -7 -5 -15 -2
-8 -15 -52 -29 -98 -47 -156 -60 -253 -61 -452 0 -147 4 -200 18 -260 11 -41
21 -86 23 -100 2 -14 8 -41 14 -60 6 -19 23 -85 40 -147 16 -61 39 -129 51
-150 63 -114 81 -143 90 -143 5 0 9 -4 9 -10 0 -28 180 -200 209 -200 6 0 11
-4 11 -10 0 -5 7 -10 15 -10 7 0 18 -6 22 -14 4 -8 10 -15 13 -14 3 0 34 -14
70 -30 36 -16 74 -33 85 -37 24 -9 220 -63 255 -70 14 -3 36 -8 50 -12 14 -3
27 -7 30 -8 9 -2 104 -17 134 -21 15 -2 35 -5 45 -8 9 -3 34 -8 56 -11 23 -3
52 -8 65 -10 14 -3 63 -12 110 -20 47 -8 94 -17 105 -19 11 -2 40 -7 65 -11
51 -8 75 -13 110 -20 14 -3 158 -8 320 -11 162 -3 369 -7 460 -10 556 -13 653
-14 664 -5 6 5 34 12 61 15 28 4 70 9 95 12 119 14 239 45 365 94 81 31 96 37
110 40 6 1 15 5 20 9 6 4 38 16 72 26 68 20 211 119 254 176 31 41 141 149
152 149 4 0 13 14 19 30 9 27 58 60 85 59 3 -1 9 4 12 9 6 10 83 51 91 48 3 0
19 9 37 22 17 12 34 22 37 22 8 0 25 13 70 55 32 30 40 65 23 93 -5 8 -2 15
10 19 15 6 82 54 130 93 7 6 15 10 18 10 5 0 32 28 64 66 16 20 41 103 41 139
0 45 -28 102 -54 111 -12 4 -29 10 -39 13 -14 5 -67 126 -80 186 -6 26 -85
176 -116 220 -44 62 -126 144 -157 155 -13 5 -21 15 -18 22 5 14 124 109 174
139 17 11 37 24 43 29 22 18 116 80 122 80 3 0 11 4 18 10 50 41 106 77 111
73 3 -4 6 2 6 12 0 10 3 16 6 12 4 -3 15 4 25 16 10 12 18 19 19 15 0 -4 16 9
35 29 30 31 35 41 29 67 -4 17 -13 40 -20 51 -12 19 -11 25 12 56 20 27 24 41
19 69 -4 19 -7 83 -8 141 -2 78 -6 110 -17 122 -33 36 -39 46 -46 71 -3 15
-10 29 -15 32 -5 3 -9 14 -9 25 0 10 -4 19 -10 19 -5 0 -10 4 -10 10 0 20 -37
52 -88 76 -29 13 -55 24 -59 24 -3 0 -19 13 -34 30 -16 16 -29 26 -29 22 0 -4
-4 -2 -8 4 -9 14 -119 96 -153 114 -13 7 -26 16 -29 19 -8 10 -133 69 -160 75
-38 9 -48 18 -53 51 -14 74 -52 206 -72 248 -10 21 -46 67 -80 103 -34 35 -59
66 -57 69 3 3 0 5 -6 5 -6 0 -25 13 -43 29 -43 40 -177 105 -269 131 -135 38
-512 32 -590 -10 -10 -5 -20 -6 -24 -3 -3 3 -6 1 -6 -5 0 -7 -9 -12 -20 -12
-11 0 -20 -4 -20 -8 0 -5 -20 -17 -45 -28 -25 -10 -45 -22 -45 -26 0 -4 -5 -8
-10 -8 -6 0 -28 -11 -50 -25 -22 -14 -40 -22 -40 -18 0 4 -7 -2 -15 -13 -8
-10 -15 -15 -15 -10 0 5 -8 2 -17 -6 -24 -19 -38 -17 -61 10 -11 12 -22 22
-26 22 -3 0 -15 8 -25 18 -30 26 -45 37 -61 40 -8 2 -16 8 -18 13 -2 5 -9 9
-16 9 -7 0 -28 8 -47 17 -19 10 -38 18 -44 19 -5 2 -35 12 -65 24 -30 12 -64
23 -75 25 -11 2 -66 17 -123 35 -79 24 -125 32 -194 33 -49 1 -90 1 -91 1z"/>
</g>
</svg>
